<?xml version="1.0" encoding="UTF-8"?>
<svg id="Layer_1" data-name="Layer 1" xmlns="http://www.w3.org/2000/svg" viewBox="0 0 799.98 711.78">
  <defs>
    <style>
      .cls-1 {
        fill: #662d91;
        stroke: #92278f;
        stroke-miterlimit: 10;
        stroke-width: 15px;
      }
    </style>
  </defs>
  <path class="cls-1" d="m792.23,225.15c.49-.46.23-1.28-.43-1.39l-201.36-31.58c-.26-.04-.49-.21-.61-.45L501.69,7.96c-.29-.61-1.15-.62-1.45-.02l-92.26,181.75c-.12.24-.35.4-.62.44l-202.02,27.04c-.67.09-.94.9-.46,1.38l69.6,69.39h-108.75c-.41,0-.75.3-.8.7-15.06,111.21-24.78,202.29-29.15,273.22-.06,1.01-1.54,1.01-1.62,0l-10.13-128.66-11.38-144.52c-.03-.42-.39-.75-.81-.75H8.31c-.48,0-.86.42-.81.9l48.28,414.73c.05.41.39.72.81.72h132.98c.4,0,.75-.3.8-.7,14.82-103.64,24.57-173.97,29.27-211.01.12-.95,1.49-.93,1.61.02,9.26,78.63,19.88,148.97,31.86,211.04.07.38.41.66.8.66h133.78c.41,0,.76-.31.81-.72l21.81-188.34,85.07-43.51c.24-.12.52-.12.75,0l179.33,96.87c.59.32,1.29-.18,1.19-.84l-32.19-201.26c-.04-.26.05-.53.24-.71l147.55-140.62Zm-491.9,346.84l-11.08-146.75c-5.9-73.39-9.71-118.05-11.43-133.99l46.74,46.6c-9.98,76.67-17.52,154.71-22.62,234.13-.06,1.01-1.54,1.02-1.61.01Z"/>
</svg>